<?xml version="1.0" encoding="UTF-8" standalone="no"?>
<svg
   viewBox="0 0 420 140"
   width="420"
   height="140"
   version="1.1"
   id="svg2"
   sodipodi:docname="logo_small.svg"
   inkscape:version="1.4.3 (0d15f75, 2025-12-25)"
   inkscape:export-filename="logo_small.png"
   inkscape:export-xdpi="96"
   inkscape:export-ydpi="96"
   xmlns:inkscape="http://www.inkscape.org/namespaces/inkscape"
   xmlns:sodipodi="http://sodipodi.sourceforge.net/DTD/sodipodi-0.dtd"
   xmlns="http://www.w3.org/2000/svg"
   xmlns:svg="http://www.w3.org/2000/svg">
  <defs
     id="defs2" />
  <sodipodi:namedview
     id="namedview2"
     pagecolor="#505050"
     bordercolor="#eeeeee"
     borderopacity="1"
     inkscape:showpageshadow="0"
     inkscape:pageopacity="0"
     inkscape:pagecheckerboard="0"
     inkscape:deskcolor="#505050"
     inkscape:zoom="1.0571429"
     inkscape:cx="133.85135"
     inkscape:cy="107.36486"
     inkscape:window-width="1920"
     inkscape:window-height="1009"
     inkscape:window-x="1072"
     inkscape:window-y="363"
     inkscape:window-maximized="1"
     inkscape:current-layer="svg2" />
  <!-- Code Icon -->
  <path
     d="m 80.15625,70.171875 16.859375,9.34375 q 1.269531,0.710937 1.675781,1.269531 0.431641,0.558594 0.431641,1.421875 0,1.091797 -0.78711,1.904297 -0.787109,0.787109 -1.828125,0.787109 -0.685546,0 -2.05664,-0.761718 L 69.339844,70.171875 94.451172,56.207031 q 1.371094,-0.736328 2.03125,-0.736328 1.066406,0 1.853515,0.787109 0.78711,0.78711 0.78711,1.878907 0,0.863281 -0.431641,1.421875 -0.40625,0.558593 -1.675781,1.269531 z m 47.37891,-17.417969 -16.68164,35.953125 q -0.63477,1.345703 -1.14258,1.751953 -0.66016,0.533203 -1.59961,0.533203 -1.06641,0 -1.85352,-0.761718 -0.76172,-0.761719 -0.76172,-1.726563 0,-0.685547 0.60938,-2.005859 l 16.73242,-35.927735 q 0.63477,-1.345703 1.11719,-1.751953 0.68555,-0.533203 1.59961,-0.533203 1.0664,0 1.82812,0.761719 0.76172,0.736328 0.76172,1.701172 0,0.685547 -0.60937,2.005859 z m 25.97461,17.417969 -16.85938,-9.34375 Q 135.38086,60.117187 134.94922,59.558594 134.54297,59 134.54297,58.136719 q 0,-1.091797 0.78711,-1.878907 0.78711,-0.787109 1.85351,-0.787109 0.66016,0 2.03125,0.736328 l 25.11133,13.964844 -25.11133,13.964844 q -1.37109,0.761718 -2.03125,0.761718 -1.0664,0 -1.85351,-0.787109 -0.78711,-0.787109 -0.78711,-1.904297 0,-0.863281 0.40625,-1.421875 0.43164,-0.558594 1.70117,-1.269531 z"
     id="text1"
     style="font-weight:700;font-size:52px;font-family:monospace;fill:#10b981;fill-opacity:1"
     aria-label="&lt;/&gt;"
     inkscape:label="Icon" />
  <!-- Logo Text -->
  <g
     id="text2"
     style="font-weight:700;font-size:42px;font-family:Inter, Arial, sans-serif"
     aria-label="TurboHttp"
     inkscape:label="Text">
    <path
       style="fill:#10b981;fill-opacity:1"
       d="M 179.82324,85 V 60.021484 h -8.9209 v -5.085937 h 23.89161 v 5.085937 h -8.9004 V 85 Z m 30.06446,0 v -3.260742 q -1.18946,1.743164 -3.1377,2.748047 -1.92773,1.004882 -4.08105,1.004882 -2.19434,0 -3.9375,-0.963867 -1.74317,-0.963867 -2.52247,-2.707031 -0.77929,-1.743164 -0.77929,-4.819336 v -13.78125 h 5.76269 v 10.007813 q 0,4.59375 0.30762,5.639648 0.32812,1.025391 1.16895,1.640625 0.84082,0.594727 2.13281,0.594727 1.47656,0 2.64551,-0.799805 1.16894,-0.820313 1.5996,-2.009766 0.43067,-1.209961 0.43067,-5.885742 v -9.1875 h 5.76269 V 85 Z m 16.83691,0 h -5.7627 V 63.220703 h 5.35254 v 3.09668 q 1.37403,-2.194336 2.46094,-2.891602 1.10742,-0.697265 2.50195,-0.697265 1.96875,0 3.79395,1.086914 l -1.78418,5.024414 q -1.45606,-0.94336 -2.70703,-0.94336 -1.20996,0 -2.05078,0.676758 -0.84082,0.65625 -1.33301,2.399414 -0.47168,1.743164 -0.47168,7.300781 z m 10.58203,0 V 54.935547 h 5.7627 v 10.828125 q 2.66601,-3.035156 6.3164,-3.035156 3.97852,0 6.58301,2.891601 2.60449,2.871094 2.60449,8.264649 0,5.578125 -2.66601,8.592773 -2.64551,3.014648 -6.43946,3.014648 -1.86621,0 -3.6914,-0.922851 -1.80469,-0.943359 -3.11719,-2.768555 V 85 Z m 5.72168,-11.361328 q 0,3.383789 1.06641,5.003906 1.49707,2.296875 3.97851,2.296875 1.90723,0 3.24024,-1.620117 1.35351,-1.640625 1.35351,-5.147461 0,-3.732422 -1.35351,-5.373047 -1.35352,-1.661133 -3.46582,-1.661133 -2.07129,0 -3.44532,1.620117 -1.37402,1.59961 -1.37402,4.88086 z m 18.84668,0.164062 q 0,-2.871093 1.41504,-5.557617 1.41504,-2.686523 3.99902,-4.101562 2.60449,-1.415039 5.80371,-1.415039 4.94239,0 8.10059,3.219726 3.1582,3.199219 3.1582,8.100586 0,4.942383 -3.19922,8.203125 -3.17871,3.240234 -8.01855,3.240234 -2.99414,0 -5.72168,-1.353515 -2.70703,-1.353516 -4.12207,-3.958008 -1.41504,-2.625 -1.41504,-6.37793 z m 5.90625,0.307618 q 0,3.240234 1.53809,4.96289 1.53808,1.722656 3.79394,1.722656 2.25586,0 3.77344,-1.722656 1.53808,-1.722656 1.53808,-5.003906 0,-3.199219 -1.53808,-4.921875 -1.51758,-1.722656 -3.77344,-1.722656 -2.25586,0 -3.79394,1.722656 -1.53809,1.722656 -1.53809,4.962891 z"
       id="path2"
       inkscape:label="Turbo" />
    <path
       style="fill:#8b5cf6;fill-opacity:1"
       d="M 288.9248,85 V 54.935547 h 6.07032 v 11.833008 h 11.89453 V 54.935547 h 6.07031 V 85 h -6.07031 V 71.854492 H 294.99512 V 85 Z m 40.25684,-21.779297 v 4.59375 h -3.9375 v 8.777344 q 0,2.666015 0.10254,3.117187 0.12305,0.430664 0.51269,0.717774 0.41016,0.287109 0.98438,0.287109 0.7998,0 2.31738,-0.553711 l 0.49219,4.470703 q -2.00977,0.861328 -4.55273,0.861328 -1.5586,0 -2.80957,-0.512695 -1.25098,-0.533203 -1.84571,-1.353515 -0.57422,-0.840821 -0.7998,-2.25586 -0.18457,-1.004883 -0.18457,-4.060547 v -9.495117 h -2.64551 v -4.59375 h 2.64551 v -4.327148 l 5.7832,-3.363282 v 7.69043 z m 13.98633,0 v 4.59375 h -3.9375 v 8.777344 q 0,2.666015 0.10254,3.117187 0.12304,0.430664 0.51269,0.717774 0.41016,0.287109 0.98438,0.287109 0.7998,0 2.31738,-0.553711 l 0.49219,4.470703 q -2.00977,0.861328 -4.55274,0.861328 -1.55859,0 -2.80957,-0.512695 -1.25097,-0.533203 -1.8457,-1.353515 -0.57422,-0.840821 -0.7998,-2.25586 -0.18457,-1.004883 -0.18457,-4.060547 v -9.495117 h -2.64551 v -4.59375 h 2.64551 v -4.327148 l 5.7832,-3.363282 v 7.69043 z m 3.83496,0 h 5.37305 v 3.199219 q 1.04589,-1.640625 2.83007,-2.666016 1.78418,-1.02539 3.95801,-1.02539 3.79395,0 6.43946,2.973632 2.6455,2.973633 2.6455,8.285157 0,5.455078 -2.66601,8.490234 -2.66602,3.014648 -6.45996,3.014648 -1.80469,0 -3.28125,-0.717773 -1.45606,-0.717773 -3.07618,-2.460937 v 10.971679 h -5.76269 z m 5.70117,10.520508 q 0,3.670898 1.45606,5.43457 1.45605,1.743164 3.54785,1.743164 2.00976,0 3.34277,-1.599609 1.33301,-1.620117 1.33301,-5.291016 0,-3.424804 -1.37402,-5.085937 -1.37403,-1.661133 -3.4043,-1.661133 -2.11231,0 -3.50684,1.640625 -1.39453,1.620117 -1.39453,4.819336 z"
       id="path3"
       inkscape:label="Http" />
  </g>
</svg>
