<?xml version="1.0" encoding="UTF-8" standalone="no"?>
<svg
   viewBox="0 0 420 140"
   width="420"
   height="140"
   version="1.1"
   id="svg2"
   sodipodi:docname="logo_small.svg"
   inkscape:version="1.4.2 (f4327f4, 2025-05-13)"
   inkscape:export-filename="logo_small.png"
   inkscape:export-xdpi="96"
   inkscape:export-ydpi="96"
   xmlns:inkscape="http://www.inkscape.org/namespaces/inkscape"
   xmlns:sodipodi="http://sodipodi.sourceforge.net/DTD/sodipodi-0.dtd"
   xmlns="http://www.w3.org/2000/svg"
   xmlns:svg="http://www.w3.org/2000/svg">
  <defs
     id="defs2">
    <rect
       x="151.35135"
       y="156.08107"
       width="230.8108"
       height="53.918917"
       id="rect3" />
  </defs>
  <sodipodi:namedview
     id="namedview2"
     pagecolor="#505050"
     bordercolor="#eeeeee"
     borderopacity="1"
     inkscape:showpageshadow="0"
     inkscape:pageopacity="0"
     inkscape:pagecheckerboard="0"
     inkscape:deskcolor="#505050"
     inkscape:zoom="2.1142858"
     inkscape:cx="187.29729"
     inkscape:cy="148.74999"
     inkscape:window-width="1920"
     inkscape:window-height="1009"
     inkscape:window-x="1072"
     inkscape:window-y="268"
     inkscape:window-maximized="1"
     inkscape:current-layer="g3" />
  <!-- Code Icon -->
  <!-- Logo Text -->
  <g
     id="g3"
     transform="translate(1.4189195)">
    <path
       d="m 55.190331,70.533203 16.85938,9.34375 q 1.26953,0.710937 1.67578,1.269531 0.43164,0.558594 0.43164,1.421875 0,1.091797 -0.78711,1.904297 -0.78711,0.787109 -1.82813,0.787109 -0.68554,0 -2.05664,-0.761718 L 44.373931,70.533203 69.485251,56.568359 q 1.3711,-0.736328 2.03125,-0.736328 1.06641,0 1.85352,0.787109 0.78711,0.78711 0.78711,1.878907 0,0.863281 -0.43164,1.421875 -0.40625,0.558593 -1.67578,1.269531 z M 102.56924,53.115234 85.887601,89.068359 q -0.63477,1.345703 -1.14258,1.751953 -0.66016,0.533203 -1.59961,0.533203 -1.06641,0 -1.85352,-0.761718 -0.76172,-0.761719 -0.76172,-1.726563 0,-0.685547 0.60938,-2.005859 L 97.871966,50.93164 q 0.63477,-1.345703 1.11719,-1.751953 0.68555,-0.533203 1.599614,-0.533203 1.0664,0 1.82812,0.761719 0.76172,0.736328 0.76172,1.701172 0,0.685547 -0.60937,2.005859 z m 25.97462,17.417969 -16.85939,-9.34375 q -1.26953,-0.710938 -1.70117,-1.269531 -0.40625,-0.558594 -0.40625,-1.421875 0,-1.091797 0.78711,-1.878907 0.78711,-0.787109 1.85351,-0.787109 0.66016,0 2.03125,0.736328 l 25.11134,13.964844 -25.11134,13.964844 q -1.37109,0.761718 -2.03125,0.761718 -1.0664,0 -1.85351,-0.787109 -0.78711,-0.787109 -0.78711,-1.904297 0,-0.863281 0.40625,-1.421875 0.43164,-0.558594 1.70117,-1.269531 z"
       id="text1"
       style="font-weight:700;font-size:52px;font-family:monospace;fill:#10b981;fill-opacity:1"
       aria-label="&lt;/&gt;"
       inkscape:label="Icon" />
    <g
       id="text2"
       style="font-weight:700;font-size:42px;font-family:Inter, Arial, sans-serif"
       aria-label="TurboHTTP"
       inkscape:label="Text"
       transform="translate(-18.469913,-0.1242244)">
      <path
         style="fill:#10b981;fill-opacity:1"
         d="M 179.82324,85 V 60.021484 h -8.9209 v -5.085937 h 23.89161 v 5.085937 h -8.9004 V 85 Z m 30.06446,0 v -3.260742 q -1.18946,1.743164 -3.1377,2.748047 -1.92773,1.004882 -4.08105,1.004882 -2.19434,0 -3.9375,-0.963867 -1.74317,-0.963867 -2.52247,-2.707031 -0.77929,-1.743164 -0.77929,-4.819336 v -13.78125 h 5.76269 v 10.007813 q 0,4.59375 0.30762,5.639648 0.32812,1.025391 1.16895,1.640625 0.84082,0.594727 2.13281,0.594727 1.47656,0 2.64551,-0.799805 1.16894,-0.820313 1.5996,-2.009766 0.43067,-1.209961 0.43067,-5.885742 v -9.1875 h 5.76269 V 85 Z m 16.83691,0 h -5.7627 V 63.220703 h 5.35254 v 3.09668 q 1.37403,-2.194336 2.46094,-2.891602 1.10742,-0.697265 2.50195,-0.697265 1.96875,0 3.79395,1.086914 l -1.78418,5.024414 q -1.45606,-0.94336 -2.70703,-0.94336 -1.20996,0 -2.05078,0.676758 -0.84082,0.65625 -1.33301,2.399414 -0.47168,1.743164 -0.47168,7.300781 z m 10.58203,0 V 54.935547 h 5.7627 v 10.828125 q 2.66601,-3.035156 6.3164,-3.035156 3.97852,0 6.58301,2.891601 2.60449,2.871094 2.60449,8.264649 0,5.578125 -2.66601,8.592773 -2.64551,3.014648 -6.43946,3.014648 -1.86621,0 -3.6914,-0.922851 -1.80469,-0.943359 -3.11719,-2.768555 V 85 Z m 5.72168,-11.361328 q 0,3.383789 1.06641,5.003906 1.49707,2.296875 3.97851,2.296875 1.90723,0 3.24024,-1.620117 1.35351,-1.640625 1.35351,-5.147461 0,-3.732422 -1.35351,-5.373047 -1.35352,-1.661133 -3.46582,-1.661133 -2.07129,0 -3.44532,1.620117 -1.37402,1.59961 -1.37402,4.88086 z m 18.84668,0.164062 q 0,-2.871093 1.41504,-5.557617 1.41504,-2.686523 3.99902,-4.101562 2.60449,-1.415039 5.80371,-1.415039 4.94239,0 8.10059,3.219726 3.1582,3.199219 3.1582,8.100586 0,4.942383 -3.19922,8.203125 -3.17871,3.240234 -8.01855,3.240234 -2.99414,0 -5.72168,-1.353515 -2.70703,-1.353516 -4.12207,-3.958008 -1.41504,-2.625 -1.41504,-6.37793 z m 5.90625,0.307618 q 0,3.240234 1.53809,4.96289 1.53808,1.722656 3.79394,1.722656 2.25586,0 3.77344,-1.722656 1.53808,-1.722656 1.53808,-5.003906 0,-3.199219 -1.53808,-4.921875 -1.51758,-1.722656 -3.77344,-1.722656 -2.25586,0 -3.79394,1.722656 -1.53809,1.722656 -1.53809,4.962891 z"
         id="path2"
         inkscape:label="Turbo" />
      <path
         d="m 288.02569,85.517783 v -30.06446 h 6.07032 v 11.83301 h 11.89453 v -11.83301 h 6.07031 v 30.06446 h -6.07031 v -13.14551 h -11.89453 v 13.14551 z m 37.07813,0 v -24.97852 h -8.9209 v -5.08594 h 23.8916 v 5.08594 h -8.90039 v 24.97852 z m 25.65527,0 v -24.97852 h -8.9209 v -5.08594 h 23.89161 v 5.08594 h -8.90039 v 24.97852 z m 18.8877,0 v -30.06446 h 9.74121 q 5.53711,0 7.21875,0.45118 2.58398,0.67675 4.32715,2.95312 1.74316,2.25586 1.74316,5.84473 0,2.76855 -1.00488,4.65527 -1.00488,1.88672 -2.56348,2.97363 -1.53808,1.06641 -3.13769,1.41504 -2.17383,0.43067 -6.2959,0.43067 h -3.95801 v 11.34082 z m 6.07031,-24.97852 v 8.53125 h 3.32227 q 3.58886,0 4.79882,-0.47168 1.20997,-0.47168 1.88672,-1.47656 0.69727,-1.00488 0.69727,-2.33789 0,-1.64063 -0.96387,-2.70703 -0.96387,-1.06641 -2.44043,-1.33301 -1.08691,-0.20508 -4.36816,-0.20508 z"
         id="text3"
         style="font-weight:700;font-size:42px;font-family:Inter, Arial, sans-serif;white-space:pre;fill:#8b5cf6"
         aria-label="HTTP"
         inkscape:label="HTTP" />
    </g>
  </g>
</svg>
