<?xml version="1.0" encoding="UTF-8" standalone="no"?>
<svg
   width="512"
   height="512"
   viewBox="0 0 512 512"
   version="1.1"
   id="svg2"
   sodipodi:docname="logo.svg"
   inkscape:export-filename="logo.png"
   inkscape:export-xdpi="96"
   inkscape:export-ydpi="96"
   inkscape:version="1.4.2 (f4327f4, 2025-05-13)"
   xmlns:inkscape="http://www.inkscape.org/namespaces/inkscape"
   xmlns:sodipodi="http://sodipodi.sourceforge.net/DTD/sodipodi-0.dtd"
   xmlns="http://www.w3.org/2000/svg"
   xmlns:svg="http://www.w3.org/2000/svg">
  <defs
     id="defs2">
    <rect
       x="179.66357"
       y="222.3829"
       width="165.4238"
       height="163.90892"
       id="rect3" />
  </defs>
  <sodipodi:namedview
     id="namedview2"
     pagecolor="#ffffff"
     bordercolor="#000000"
     borderopacity="0.25"
     inkscape:showpageshadow="2"
     inkscape:pageopacity="0.0"
     inkscape:pagecheckerboard="0"
     inkscape:deskcolor="#d1d1d1"
     inkscape:zoom="1.1669431"
     inkscape:cx="123.39933"
     inkscape:cy="282.36167"
     inkscape:window-width="1920"
     inkscape:window-height="1009"
     inkscape:window-x="1072"
     inkscape:window-y="268"
     inkscape:window-maximized="1"
     inkscape:current-layer="logo-text"
     inkscape:export-bgcolor="#ffffff00" />
  <!-- Background -->
  <!-- Code Icon -->
  <!-- Logo Text -->
  <g
     id="g3"
     transform="translate(-4,25.105469)">
    <g
       id="code-icon"
       font-family="monospace"
       font-size="72px"
       font-weight="700"
       fill="#1d2b53"
       text-anchor="middle">
      <text
         x="260.5"
         y="180"
         id="text1">&lt;/&gt;</text>
    </g>
    <g
       id="logo-text"
       font-family="Inter, Arial, sans-serif"
       font-size="64px"
       font-weight="700"
       text-anchor="middle">
      <g
         id="text2"
         aria-label="TurboHttp">
        <path
           style="fill:#d19a00"
           d="m 123.23438,320 v -38.0625 h -13.59375 v -7.75 h 36.40624 v 7.75 h -13.5625 V 320 Z m 45.81249,0 v -4.96875 q -1.8125,2.65625 -4.78125,4.1875 -2.9375,1.53125 -6.21875,1.53125 -3.34375,0 -6,-1.46875 -2.65625,-1.46875 -3.84375,-4.125 -1.1875,-2.65625 -1.1875,-7.34375 v -21 h 8.78125 v 15.25 q 0,7 0.46875,8.59375 0.5,1.5625 1.78125,2.5 1.28125,0.90625 3.25,0.90625 2.25,0 4.03125,-1.21875 1.78125,-1.25 2.4375,-3.0625 0.65625,-1.84375 0.65625,-8.96875 v -14 h 8.78125 V 320 Z m 25.65625,0 h -8.78125 v -33.1875 h 8.15625 v 4.71875 q 2.09375,-3.34375 3.75,-4.40625 1.6875,-1.0625 3.8125,-1.0625 3,0 5.78125,1.65625 l -2.71875,7.65625 q -2.21875,-1.4375 -4.125,-1.4375 -1.84375,0 -3.125,1.03125 -1.28125,1 -2.03125,3.65625 -0.71875,2.65625 -0.71875,11.125 z m 16.125,0 v -45.8125 h 8.78125 v 16.5 q 4.0625,-4.625 9.625,-4.625 6.0625,0 10.03125,4.40625 3.96875,4.375 3.96875,12.59375 0,8.5 -4.0625,13.09375 -4.03125,4.59375 -9.8125,4.59375 -2.84375,0 -5.625,-1.40625 -2.75,-1.4375 -4.75,-4.21875 V 320 Z m 8.71875,-17.3125 q 0,5.15625 1.625,7.625 2.28125,3.5 6.0625,3.5 2.90625,0 4.9375,-2.46875 2.0625,-2.5 2.0625,-7.84375 0,-5.6875 -2.0625,-8.1875 -2.0625,-2.53125 -5.28125,-2.53125 -3.15625,0 -5.25,2.46875 -2.09375,2.4375 -2.09375,7.4375 z m 28.71875,0.25 q 0,-4.375 2.15625,-8.46875 2.15625,-4.09375 6.09375,-6.25 3.96875,-2.15625 8.84375,-2.15625 7.53125,0 12.34375,4.90625 4.8125,4.875 4.8125,12.34375 0,7.53125 -4.875,12.5 -4.84375,4.9375 -12.21875,4.9375 -4.5625,0 -8.71875,-2.0625 -4.125,-2.0625 -6.28125,-6.03125 -2.15625,-4 -2.15625,-9.71875 z m 9,0.46875 q 0,4.9375 2.34375,7.5625 2.34375,2.625 5.78125,2.625 3.4375,0 5.75,-2.625 2.34375,-2.625 2.34375,-7.625 0,-4.875 -2.34375,-7.5 -2.3125,-2.625 -5.75,-2.625 -3.4375,0 -5.78125,2.625 -2.34375,2.625 -2.34375,7.5625 z"
           id="path2" />
        <path
           style="fill:#24345d"
           d="m 289.48437,320 v -45.8125 h 9.25 v 18.03125 h 18.125 V 274.1875 h 9.25 V 320 h -9.25 v -20.03125 h -18.125 V 320 Z m 61.34375,-33.1875 v 7 h -6 v 13.375 q 0,4.0625 0.15625,4.75 0.1875,0.65625 0.78125,1.09375 0.625,0.4375 1.5,0.4375 1.21875,0 3.53125,-0.84375 l 0.75,6.8125 q -3.0625,1.3125 -6.9375,1.3125 -2.375,0 -4.28125,-0.78125 -1.90625,-0.8125 -2.8125,-2.0625 -0.875,-1.28125 -1.21875,-3.4375 -0.28125,-1.53125 -0.28125,-6.1875 V 293.8125 h -4.03125 v -7 h 4.03125 v -6.59375 l 8.8125,-5.125 v 11.71875 z m 21.3125,0 v 7 h -6 v 13.375 q 0,4.0625 0.15625,4.75 0.1875,0.65625 0.78125,1.09375 0.625,0.4375 1.5,0.4375 1.21875,0 3.53125,-0.84375 l 0.75,6.8125 q -3.0625,1.3125 -6.9375,1.3125 -2.375,0 -4.28125,-0.78125 -1.90625,-0.8125 -2.8125,-2.0625 -0.875,-1.28125 -1.21875,-3.4375 -0.28125,-1.53125 -0.28125,-6.1875 V 293.8125 h -4.03125 v -7 h 4.03125 v -6.59375 l 8.8125,-5.125 v 11.71875 z m 5.84375,0 h 8.1875 v 4.875 q 1.59375,-2.5 4.3125,-4.0625 2.71875,-1.5625 6.03125,-1.5625 5.78125,0 9.8125,4.53125 4.03125,4.53125 4.03125,12.625 0,8.3125 -4.0625,12.9375 -4.0625,4.59375 -9.84375,4.59375 -2.75,0 -5,-1.09375 -2.21875,-1.09375 -4.6875,-3.75 V 332.625 h -8.78125 z m 8.6875,16.03125 q 0,5.59375 2.21875,8.28125 2.21875,2.65625 5.40625,2.65625 3.0625,0 5.09375,-2.4375 2.03125,-2.46875 2.03125,-8.0625 0,-5.21875 -2.09375,-7.75 Q 397.23437,293 394.14062,293 q -3.21875,0 -5.34375,2.5 -2.125,2.46875 -2.125,7.34375 z"
           id="path3" />
      </g>
    </g>
  </g>
</svg>
