<?xml version="1.0" encoding="UTF-8" standalone="no"?>
<svg
   viewBox="0 0 420 140"
   width="420"
   height="140"
   version="1.1"
   id="svg2"
   sodipodi:docname="logo_small.svg"
   inkscape:version="1.4.2 (f4327f4, 2025-05-13)"
   inkscape:export-filename="..\public\logo\logo_small.png"
   inkscape:export-xdpi="96"
   inkscape:export-ydpi="96"
   xmlns:inkscape="http://www.inkscape.org/namespaces/inkscape"
   xmlns:sodipodi="http://sodipodi.sourceforge.net/DTD/sodipodi-0.dtd"
   xmlns="http://www.w3.org/2000/svg"
   xmlns:svg="http://www.w3.org/2000/svg">
  <defs
     id="defs2">
    <rect
       x="151.35135"
       y="156.08107"
       width="230.8108"
       height="53.918917"
       id="rect3" />
  </defs>
  <sodipodi:namedview
     id="namedview2"
     pagecolor="#505050"
     bordercolor="#eeeeee"
     borderopacity="1"
     inkscape:showpageshadow="0"
     inkscape:pageopacity="0"
     inkscape:pagecheckerboard="0"
     inkscape:deskcolor="#505050"
     inkscape:zoom="2.9900517"
     inkscape:cx="208.52483"
     inkscape:cy="111.53653"
     inkscape:window-width="1920"
     inkscape:window-height="1009"
     inkscape:window-x="1072"
     inkscape:window-y="268"
     inkscape:window-maximized="1"
     inkscape:current-layer="g3" />
  <!-- Code Icon -->
  <!-- Logo Text -->
  <g
     id="g3"
     transform="translate(-19.650012)"
     inkscape:label="LogoSmall">
    <path
       d="m 63.216948,70.533203 16.85938,9.34375 q 1.26953,0.710937 1.67578,1.269531 0.43164,0.558594 0.43164,1.421875 0,1.091797 -0.78711,1.904297 -0.78711,0.787109 -1.82813,0.787109 -0.68554,0 -2.05664,-0.761718 L 52.400548,70.533203 77.511868,56.56836 q 1.3711,-0.736328 2.03125,-0.736328 1.06641,0 1.85352,0.787109 0.78711,0.78711 0.78711,1.878907 0,0.863281 -0.43164,1.421875 -0.40625,0.558593 -1.67578,1.269531 z M 110.59586,53.115235 93.914218,89.068359 q -0.63477,1.345703 -1.14258,1.751953 -0.66016,0.533203 -1.59961,0.533203 -1.06641,0 -1.85352,-0.761718 -0.76172,-0.761719 -0.76172,-1.726563 0,-0.685547 0.60938,-2.005859 L 105.89858,50.931641 q 0.63477,-1.345703 1.11719,-1.751953 0.68555,-0.533203 1.59962,-0.533203 1.0664,0 1.82812,0.761719 0.76172,0.736328 0.76172,1.701172 0,0.685547 -0.60937,2.005859 z m 25.97462,17.417969 -16.85939,-9.34375 q -1.26953,-0.710938 -1.70117,-1.269531 -0.40625,-0.558594 -0.40625,-1.421875 0,-1.091797 0.78711,-1.878907 0.78711,-0.787109 1.85351,-0.787109 0.66016,0 2.03125,0.736328 l 25.11134,13.964844 -25.11134,13.964844 q -1.37109,0.761718 -2.03125,0.761718 -1.0664,0 -1.85351,-0.787109 -0.78711,-0.787109 -0.78711,-1.904297 0,-0.863281 0.40625,-1.421875 0.43164,-0.558594 1.70117,-1.269531 z"
       id="text1"
       style="font-weight:700;font-size:52px;font-family:monospace;fill:#10b981;fill-opacity:1"
       aria-label="&lt;/&gt;"
       inkscape:label="Icon" />
    <g
       id="text4"
       style="font-weight:bold;font-size:48px;font-family:Inter, Arial, sans-serif;-inkscape-font-specification:'Inter, Arial, sans-serif, Bold';text-align:center;text-anchor:middle;fill:#8b5cf6"
       aria-label="TurboHTTP"
       inkscape:label="Text">
      <path
         style="fill:#10b981"
         d="M 162.61041,86.898437 V 58.351562 H 152.4151 v -5.8125 h 27.30469 v 5.8125 h -10.17188 v 28.546875 z m 34.35938,0 v -3.726562 q -1.35938,1.992187 -3.58594,3.140625 -2.20312,1.148437 -4.66406,1.148437 -2.50781,0 -4.5,-1.101562 -1.99219,-1.101563 -2.88281,-3.09375 -0.89063,-1.992188 -0.89063,-5.507813 v -15.75 h 6.58594 v 11.4375 q 0,5.25 0.35156,6.445313 0.375,1.171875 1.33594,1.875 0.96094,0.679687 2.4375,0.679687 1.6875,0 3.02344,-0.914062 1.33593,-0.9375 1.82812,-2.296875 0.49219,-1.382813 0.49219,-6.726563 v -10.5 h 6.58594 v 24.890625 z m 19.24219,0 h -6.58594 V 62.007812 h 6.11719 v 3.539063 q 1.57031,-2.507813 2.8125,-3.304688 1.26562,-0.796875 2.85937,-0.796875 2.25,0 4.33594,1.242188 l -2.03906,5.742187 q -1.66407,-1.078125 -3.09375,-1.078125 -1.38282,0 -2.34375,0.773438 -0.96094,0.75 -1.52344,2.742187 -0.53906,1.992188 -0.53906,8.34375 z m 12.09375,0 V 52.539062 h 6.58593 v 12.375 q 3.04688,-3.46875 7.21875,-3.46875 4.54688,0 7.52344,3.304688 2.97656,3.28125 2.97656,9.445312 0,6.375 -3.04687,9.820313 -3.02344,3.445312 -7.35938,3.445312 -2.13281,0 -4.21875,-1.054687 -2.0625,-1.078125 -3.5625,-3.164063 v 3.65625 z m 6.53906,-12.984375 q 0,3.867188 1.21875,5.71875 1.71094,2.625 4.54687,2.625 2.17969,0 3.70313,-1.851562 1.54687,-1.875 1.54687,-5.882813 0,-4.265625 -1.54687,-6.140625 -1.54688,-1.898437 -3.96094,-1.898437 -2.36719,0 -3.9375,1.851562 -1.57031,1.828125 -1.57031,5.578125 z m 21.53906,0.1875 q 0,-3.28125 1.61719,-6.351562 1.61719,-3.070313 4.57031,-4.6875 2.97656,-1.617188 6.63281,-1.617188 5.64844,0 9.25782,3.679688 3.60937,3.65625 3.60937,9.257812 0,5.648438 -3.65625,9.375 -3.63281,3.703125 -9.16406,3.703125 -3.42188,0 -6.53906,-1.546875 -3.09375,-1.546875 -4.71094,-4.523437 -1.61719,-3 -1.61719,-7.289063 z m 6.75,0.351563 q 0,3.703125 1.75781,5.671875 1.75782,1.96875 4.33594,1.96875 2.57813,0 4.3125,-1.96875 1.75781,-1.96875 1.75781,-5.71875 0,-3.65625 -1.75781,-5.625 -1.73437,-1.96875 -4.3125,-1.96875 -2.57812,0 -4.33594,1.96875 -1.75781,1.96875 -1.75781,5.671875 z"
         id="path6"
         inkscape:label="Turbo" />
      <path
         d="M 287.29791,86.898437 V 52.539062 h 6.9375 V 66.0625 h 13.59375 V 52.539062 h 6.9375 v 34.359375 h -6.9375 V 71.875 h -13.59375 v 15.023437 z m 42.375,0 V 58.351562 H 319.4776 v -5.8125 h 27.30469 v 5.8125 h -10.17188 v 28.546875 z m 29.32032,0 V 58.351562 h -10.19532 v -5.8125 h 27.30469 v 5.8125 h -10.17187 v 28.546875 z m 21.58593,0 V 52.539062 h 11.13282 q 6.32812,0 8.25,0.515625 2.95312,0.773438 4.94531,3.375 1.99219,2.578125 1.99219,6.679688 0,3.164062 -1.14844,5.320312 -1.14844,2.15625 -2.92969,3.398438 -1.75781,1.21875 -3.58594,1.617187 -2.48437,0.492188 -7.19531,0.492188 h -4.52344 v 12.960937 z m 6.9375,-28.546875 v 9.75 h 3.79688 q 4.10156,0 5.48437,-0.539062 1.38282,-0.539063 2.15625,-1.6875 0.79688,-1.148438 0.79688,-2.671875 0,-1.875 -1.10156,-3.09375 -1.10157,-1.21875 -2.78907,-1.523438 -1.24218,-0.234375 -4.99218,-0.234375 z"
         id="path7"
         inkscape:label="HTTP" />
    </g>
  </g>
</svg>
